<svg xmlns="http://www.w3.org/2000/svg" width="24" height="24"><path fill="#A3D3F4" d="M13 0h2l1 3c3.442 3.827 3.442 3.827 8 6v2l-3 1-1 2 2 1.188C24 17 24 17 24.375 19.562 24 22 24 22 22 24c-2.139.243-2.139.243-4.754.23l-2.838-.005-2.97-.038-2.983-.001C1.14 24.14 1.14 24.14 0 23c-.04-2-.043-4 0-6l3-1 .25-2.375L4 11a90 90 0 0 1 4-2 70 70 0 0 0 1-4l3-2z"/><path fill="#FCCF23" d="M13 0h2l1 3c3.442 3.827 3.442 3.827 8 6v2l-3 1c-1.667 1.5-1.667 1.5-3 3l-2-2c-2.069-.643-2.069-.643-4-1v-2L8 9c.313-1.875.313-1.875 1-4l3-2z"/><path fill="#FED020" d="M20 2h2l-1 3h-2z"/><path fill="#FDDD16" d="m6 2 3 1v2L6 4z"/></svg>